<mxfile host="app.diagrams.net" agent="Mozilla/5.0 (Windows NT 10.0; Win64; x64) AppleWebKit/537.36 (KHTML, like Gecko) Chrome/136.0.0.0 Safari/537.36" version="27.0.3">
  <diagram name="Page-1" id="32b2wL0Xer1wb15sUSph">
    <mxGraphModel dx="2693" dy="1318" grid="1" gridSize="10" guides="1" tooltips="1" connect="1" arrows="1" fold="1" page="1" pageScale="1" pageWidth="850" pageHeight="1100" math="0" shadow="0">
      <root>
        <mxCell id="0" />
        <mxCell id="1" parent="0" />
        <mxCell id="7QMVq0ADoUrVYyUIM2ya-11" value="" style="shape=partialRectangle;whiteSpace=wrap;html=1;right=0;top=0;bottom=0;fillColor=none;routingCenterX=-0.5;hachureGap=4;fontFamily=Garamond;fontStyle=1" vertex="1" parent="1">
          <mxGeometry x="1380" y="650" width="30" height="50" as="geometry" />
        </mxCell>
        <mxCell id="7QMVq0ADoUrVYyUIM2ya-14" value="&lt;font style=&quot;font-size: 16px;&quot;&gt;user&amp;nbsp;&lt;span style=&quot;background-color: transparent; color: light-dark(rgb(0, 0, 0), rgb(255, 255, 255));&quot;&gt;Data-&lt;/span&gt;&lt;span style=&quot;background-color: transparent; color: light-dark(rgb(0, 0, 0), rgb(255, 255, 255));&quot;&gt;base&lt;/span&gt;&lt;/font&gt;" style="strokeWidth=2;html=1;shape=mxgraph.flowchart.annotation_1;align=right;pointerEvents=1;hachureGap=4;fontFamily=Garamond;fontStyle=1" vertex="1" parent="1">
          <mxGeometry x="1360" y="650" width="175" height="50" as="geometry" />
        </mxCell>
        <mxCell id="7QMVq0ADoUrVYyUIM2ya-19" value="Users&lt;div&gt;&lt;font style=&quot;font-size: 12px;&quot;&gt;(Employee&lt;span style=&quot;background-color: transparent; color: light-dark(rgb(0, 0, 0), rgb(255, 255, 255));&quot;&gt;s, Trainer&lt;/span&gt;&lt;span style=&quot;background-color: transparent; color: light-dark(rgb(0, 0, 0), rgb(255, 255, 255));&quot;&gt;s&lt;/span&gt;&lt;span style=&quot;background-color: transparent; color: light-dark(rgb(0, 0, 0), rgb(255, 255, 255));&quot;&gt;)&lt;/span&gt;&lt;/font&gt;&lt;/div&gt;" style="rounded=0;whiteSpace=wrap;html=1;hachureGap=4;fontFamily=Garamond;fontSize=18;fontStyle=1" vertex="1" parent="1">
          <mxGeometry x="160" y="675" width="120" height="60" as="geometry" />
        </mxCell>
        <mxCell id="7QMVq0ADoUrVYyUIM2ya-20" value="Admin" style="rounded=0;whiteSpace=wrap;html=1;hachureGap=4;fontFamily=Garamond;fontSize=18;fontStyle=1" vertex="1" parent="1">
          <mxGeometry x="1710" y="776" width="120" height="60" as="geometry" />
        </mxCell>
        <mxCell id="7QMVq0ADoUrVYyUIM2ya-21" value="1.0" style="swimlane;fontStyle=1;childLayout=stackLayout;horizontal=1;startSize=26;fillColor=light-dark(#e6d1d1, #ededed);horizontalStack=0;resizeParent=1;resizeParentMax=0;resizeLast=0;collapsible=1;marginBottom=0;html=1;hachureGap=4;fontFamily=Garamond;rounded=1;shadow=0;glass=0;" vertex="1" parent="1">
          <mxGeometry x="375" y="650" width="140" height="100" as="geometry" />
        </mxCell>
        <mxCell id="7QMVq0ADoUrVYyUIM2ya-24" value="&lt;span style=&quot;text-wrap-mode: nowrap;&quot;&gt;&lt;font style=&quot;font-size: 18px;&quot;&gt;User&amp;nbsp;&lt;/font&gt;&lt;/span&gt;&lt;div&gt;&lt;span style=&quot;text-wrap-mode: nowrap;&quot;&gt;&lt;font style=&quot;font-size: 18px;&quot;&gt;Authentication&lt;/font&gt;&lt;/span&gt;&lt;/div&gt;" style="text;strokeColor=none;fillColor=none;align=center;verticalAlign=middle;spacingLeft=4;spacingRight=4;overflow=hidden;rotatable=0;points=[[0,0.5],[1,0.5]];portConstraint=eastwest;whiteSpace=wrap;html=1;fontFamily=Garamond;fontStyle=1" vertex="1" parent="7QMVq0ADoUrVYyUIM2ya-21">
          <mxGeometry y="26" width="140" height="74" as="geometry" />
        </mxCell>
        <mxCell id="7QMVq0ADoUrVYyUIM2ya-25" value="" style="endArrow=classic;html=1;rounded=0;hachureGap=4;fontFamily=Garamond;fontStyle=1;strokeWidth=2;" edge="1" parent="1">
          <mxGeometry width="50" height="50" relative="1" as="geometry">
            <mxPoint x="280" y="710" as="sourcePoint" />
            <mxPoint x="360" y="710" as="targetPoint" />
          </mxGeometry>
        </mxCell>
        <mxCell id="7QMVq0ADoUrVYyUIM2ya-26" value="" style="endArrow=classic;html=1;rounded=0;hachureGap=4;fontFamily=Garamond;fontStyle=1;entryX=0;entryY=0.5;entryDx=0;entryDy=0;entryPerimeter=0;" edge="1" parent="1" target="7QMVq0ADoUrVYyUIM2ya-14">
          <mxGeometry width="50" height="50" relative="1" as="geometry">
            <mxPoint x="515" y="699.5" as="sourcePoint" />
            <mxPoint x="620" y="640" as="targetPoint" />
            <Array as="points">
              <mxPoint x="560" y="675" />
            </Array>
          </mxGeometry>
        </mxCell>
        <mxCell id="7QMVq0ADoUrVYyUIM2ya-39" value="1.0" style="swimlane;fontStyle=1;childLayout=stackLayout;horizontal=1;startSize=26;fillColor=light-dark(#e6d1d1, #ededed);horizontalStack=0;resizeParent=1;resizeParentMax=0;resizeLast=0;collapsible=1;marginBottom=0;html=1;hachureGap=4;fontFamily=Garamond;rounded=1;shadow=0;glass=0;" vertex="1" parent="1">
          <mxGeometry x="1140" y="936" width="140" height="100" as="geometry" />
        </mxCell>
        <mxCell id="7QMVq0ADoUrVYyUIM2ya-40" value="&lt;span style=&quot;text-wrap-mode: nowrap;&quot;&gt;Chatbot&amp;nbsp;&lt;/span&gt;&lt;div&gt;&lt;span style=&quot;text-wrap-mode: nowrap;&quot;&gt;interaction&lt;/span&gt;&lt;/div&gt;" style="text;strokeColor=none;fillColor=none;align=center;verticalAlign=middle;spacingLeft=4;spacingRight=4;overflow=hidden;rotatable=0;points=[[0,0.5],[1,0.5]];portConstraint=eastwest;whiteSpace=wrap;html=1;fontFamily=Garamond;fontSize=18;fontStyle=1" vertex="1" parent="7QMVq0ADoUrVYyUIM2ya-39">
          <mxGeometry y="26" width="140" height="74" as="geometry" />
        </mxCell>
        <mxCell id="7QMVq0ADoUrVYyUIM2ya-43" value="" style="endArrow=classic;html=1;rounded=0;hachureGap=4;fontFamily=Garamond;fontStyle=1;entryX=0;entryY=0.5;entryDx=0;entryDy=0;entryPerimeter=0;" edge="1" parent="1" target="7QMVq0ADoUrVYyUIM2ya-50">
          <mxGeometry width="50" height="50" relative="1" as="geometry">
            <mxPoint x="1280" y="990.29" as="sourcePoint" />
            <mxPoint x="1370" y="991" as="targetPoint" />
            <Array as="points">
              <mxPoint x="1320" y="990" />
              <mxPoint x="1320" y="906" />
            </Array>
          </mxGeometry>
        </mxCell>
        <mxCell id="7QMVq0ADoUrVYyUIM2ya-49" value="" style="shape=partialRectangle;whiteSpace=wrap;html=1;right=0;top=0;bottom=0;fillColor=none;routingCenterX=-0.5;hachureGap=4;fontFamily=Garamond;fontStyle=1" vertex="1" parent="1">
          <mxGeometry x="1397.5" y="879" width="30" height="50" as="geometry" />
        </mxCell>
        <mxCell id="7QMVq0ADoUrVYyUIM2ya-50" value="&lt;span style=&quot;font-size: 16px;&quot;&gt;Chat logs&lt;/span&gt;" style="strokeWidth=2;html=1;shape=mxgraph.flowchart.annotation_1;align=right;pointerEvents=1;hachureGap=4;fontFamily=Garamond;fontStyle=1" vertex="1" parent="1">
          <mxGeometry x="1362.5" y="879" width="175" height="54" as="geometry" />
        </mxCell>
        <mxCell id="7QMVq0ADoUrVYyUIM2ya-64" value="1.0" style="swimlane;fontStyle=1;childLayout=stackLayout;horizontal=1;startSize=26;fillColor=light-dark(#e6d1d1, #ededed);horizontalStack=0;resizeParent=1;resizeParentMax=0;resizeLast=0;collapsible=1;marginBottom=0;html=1;hachureGap=4;fontFamily=Garamond;rounded=1;shadow=0;glass=0;" vertex="1" parent="1">
          <mxGeometry x="900" y="850" width="140" height="90" as="geometry" />
        </mxCell>
        <mxCell id="7QMVq0ADoUrVYyUIM2ya-65" value="&lt;span style=&quot;text-wrap-mode: nowrap;&quot;&gt;Ai phishing&lt;/span&gt;&lt;div&gt;&lt;span style=&quot;text-wrap-mode: nowrap;&quot;&gt;&amp;nbsp;Alert Engine&lt;/span&gt;&lt;/div&gt;" style="text;strokeColor=none;fillColor=none;align=center;verticalAlign=middle;spacingLeft=4;spacingRight=4;overflow=hidden;rotatable=0;points=[[0,0.5],[1,0.5]];portConstraint=eastwest;whiteSpace=wrap;html=1;fontFamily=Garamond;fontSize=18;fontStyle=1" vertex="1" parent="7QMVq0ADoUrVYyUIM2ya-64">
          <mxGeometry y="26" width="140" height="64" as="geometry" />
        </mxCell>
        <mxCell id="7QMVq0ADoUrVYyUIM2ya-68" value="1.0" style="swimlane;fontStyle=1;childLayout=stackLayout;horizontal=1;startSize=26;fillColor=light-dark(#e6d1d1, #ededed);horizontalStack=0;resizeParent=1;resizeParentMax=0;resizeLast=0;collapsible=1;marginBottom=0;html=1;hachureGap=4;fontFamily=Garamond;rounded=1;shadow=0;glass=0;" vertex="1" parent="1">
          <mxGeometry x="640" y="750" width="140" height="100" as="geometry" />
        </mxCell>
        <mxCell id="7QMVq0ADoUrVYyUIM2ya-69" value="&lt;span style=&quot;text-wrap-mode: nowrap;&quot;&gt;Training Module&lt;/span&gt;" style="text;strokeColor=none;fillColor=none;align=center;verticalAlign=middle;spacingLeft=4;spacingRight=4;overflow=hidden;rotatable=0;points=[[0,0.5],[1,0.5]];portConstraint=eastwest;whiteSpace=wrap;html=1;fontFamily=Garamond;fontSize=18;fontStyle=1" vertex="1" parent="7QMVq0ADoUrVYyUIM2ya-68">
          <mxGeometry y="26" width="140" height="74" as="geometry" />
        </mxCell>
        <mxCell id="7QMVq0ADoUrVYyUIM2ya-76" value="" style="shape=partialRectangle;whiteSpace=wrap;html=1;right=0;top=0;bottom=0;fillColor=none;routingCenterX=-0.5;hachureGap=4;fontFamily=Garamond;fontStyle=1" vertex="1" parent="1">
          <mxGeometry x="1380" y="735" width="30" height="50" as="geometry" />
        </mxCell>
        <mxCell id="7QMVq0ADoUrVYyUIM2ya-77" value="&lt;font style=&quot;font-size: 16px;&quot;&gt;Training&amp;nbsp;&lt;span style=&quot;background-color: transparent; color: light-dark(rgb(0, 0, 0), rgb(255, 255, 255));&quot;&gt;Records&lt;/span&gt;&lt;/font&gt;" style="strokeWidth=2;html=1;shape=mxgraph.flowchart.annotation_1;align=right;pointerEvents=1;hachureGap=4;fontFamily=Garamond;fontStyle=1" vertex="1" parent="1">
          <mxGeometry x="1360" y="735" width="180" height="50" as="geometry" />
        </mxCell>
        <mxCell id="7QMVq0ADoUrVYyUIM2ya-78" value="" style="shape=partialRectangle;whiteSpace=wrap;html=1;right=0;top=0;bottom=0;fillColor=none;routingCenterX=-0.5;hachureGap=4;fontFamily=Garamond;fontStyle=1" vertex="1" parent="1">
          <mxGeometry x="1380" y="810" width="37.5" height="50" as="geometry" />
        </mxCell>
        <mxCell id="7QMVq0ADoUrVYyUIM2ya-79" value="&lt;span style=&quot;font-size: 16px;&quot;&gt;AI Model data&lt;/span&gt;" style="strokeWidth=2;html=1;shape=mxgraph.flowchart.annotation_1;align=right;pointerEvents=1;hachureGap=4;fontFamily=Garamond;fontStyle=1" vertex="1" parent="1">
          <mxGeometry x="1362.5" y="811" width="175" height="50" as="geometry" />
        </mxCell>
        <mxCell id="7QMVq0ADoUrVYyUIM2ya-82" value="" style="endArrow=classic;html=1;rounded=0;hachureGap=4;fontFamily=Garamond;fontStyle=1" edge="1" parent="1">
          <mxGeometry width="50" height="50" relative="1" as="geometry">
            <mxPoint x="515" y="729.5" as="sourcePoint" />
            <mxPoint x="630" y="800" as="targetPoint" />
            <Array as="points">
              <mxPoint x="560" y="800" />
            </Array>
          </mxGeometry>
        </mxCell>
        <mxCell id="7QMVq0ADoUrVYyUIM2ya-84" value="" style="endArrow=classic;html=1;rounded=0;hachureGap=4;fontFamily=Garamond;fontStyle=1;entryX=0;entryY=0.5;entryDx=0;entryDy=0;entryPerimeter=0;" edge="1" parent="1" target="7QMVq0ADoUrVYyUIM2ya-77">
          <mxGeometry width="50" height="50" relative="1" as="geometry">
            <mxPoint x="780" y="794.5" as="sourcePoint" />
            <mxPoint x="885" y="735" as="targetPoint" />
            <Array as="points">
              <mxPoint x="825" y="760" />
            </Array>
          </mxGeometry>
        </mxCell>
        <mxCell id="7QMVq0ADoUrVYyUIM2ya-85" value="" style="endArrow=classic;html=1;rounded=0;hachureGap=4;fontFamily=Garamond;fontStyle=1" edge="1" parent="1">
          <mxGeometry width="50" height="50" relative="1" as="geometry">
            <mxPoint x="780" y="824.5" as="sourcePoint" />
            <mxPoint x="895" y="895" as="targetPoint" />
            <Array as="points">
              <mxPoint x="825" y="895" />
            </Array>
          </mxGeometry>
        </mxCell>
        <mxCell id="7QMVq0ADoUrVYyUIM2ya-86" value="1.0" style="swimlane;fontStyle=1;childLayout=stackLayout;horizontal=1;startSize=26;fillColor=light-dark(#e6d1d1, #ededed);horizontalStack=0;resizeParent=1;resizeParentMax=0;resizeLast=0;collapsible=1;marginBottom=0;html=1;hachureGap=4;fontFamily=Garamond;rounded=1;shadow=0;glass=0;" vertex="1" parent="1">
          <mxGeometry x="1950" y="766" width="140" height="100" as="geometry" />
        </mxCell>
        <mxCell id="7QMVq0ADoUrVYyUIM2ya-87" value="&lt;span style=&quot;text-wrap-mode: nowrap;&quot;&gt;Admin&amp;nbsp;&lt;/span&gt;&lt;div&gt;&lt;span style=&quot;text-wrap-mode: nowrap;&quot;&gt;Management&lt;/span&gt;&lt;/div&gt;" style="text;strokeColor=none;fillColor=none;align=center;verticalAlign=middle;spacingLeft=4;spacingRight=4;overflow=hidden;rotatable=0;points=[[0,0.5],[1,0.5]];portConstraint=eastwest;whiteSpace=wrap;html=1;fontFamily=Garamond;fontSize=18;fontStyle=1" vertex="1" parent="7QMVq0ADoUrVYyUIM2ya-86">
          <mxGeometry y="26" width="140" height="74" as="geometry" />
        </mxCell>
        <mxCell id="7QMVq0ADoUrVYyUIM2ya-88" value="" style="endArrow=classic;html=1;rounded=0;hachureGap=4;fontFamily=Garamond;fontStyle=1;strokeWidth=2;" edge="1" parent="1">
          <mxGeometry width="50" height="50" relative="1" as="geometry">
            <mxPoint x="1830" y="805.29" as="sourcePoint" />
            <mxPoint x="1910" y="805.29" as="targetPoint" />
          </mxGeometry>
        </mxCell>
        <mxCell id="7QMVq0ADoUrVYyUIM2ya-89" value="" style="endArrow=classic;html=1;rounded=0;hachureGap=4;fontFamily=Garamond;fontStyle=1;strokeWidth=2;" edge="1" parent="1">
          <mxGeometry width="50" height="50" relative="1" as="geometry">
            <mxPoint x="2090" y="825.29" as="sourcePoint" />
            <mxPoint x="2190" y="796" as="targetPoint" />
            <Array as="points">
              <mxPoint x="2130" y="796" />
            </Array>
          </mxGeometry>
        </mxCell>
        <mxCell id="7QMVq0ADoUrVYyUIM2ya-90" value="Notification" style="rounded=0;whiteSpace=wrap;html=1;hachureGap=4;fontFamily=Garamond;fontSize=18;fontStyle=1" vertex="1" parent="1">
          <mxGeometry x="2197.5" y="756" width="120" height="60" as="geometry" />
        </mxCell>
        <mxCell id="7QMVq0ADoUrVYyUIM2ya-91" value="" style="endArrow=classic;html=1;rounded=0;hachureGap=4;fontFamily=Garamond;fontStyle=1;strokeWidth=2;" edge="1" parent="1">
          <mxGeometry width="50" height="50" relative="1" as="geometry">
            <mxPoint x="2090" y="846" as="sourcePoint" />
            <mxPoint x="2190" y="896" as="targetPoint" />
            <Array as="points">
              <mxPoint x="2120" y="896" />
            </Array>
          </mxGeometry>
        </mxCell>
        <mxCell id="7QMVq0ADoUrVYyUIM2ya-92" value="Report" style="rounded=0;whiteSpace=wrap;html=1;hachureGap=4;fontFamily=Garamond;fontSize=18;fontStyle=1" vertex="1" parent="1">
          <mxGeometry x="2197.5" y="856" width="120" height="60" as="geometry" />
        </mxCell>
        <mxCell id="7QMVq0ADoUrVYyUIM2ya-93" value="" style="endArrow=classic;html=1;rounded=0;hachureGap=4;fontFamily=Garamond;fontStyle=1;strokeWidth=2;exitX=0;exitY=0.5;exitDx=0;exitDy=0;" edge="1" parent="1" source="7QMVq0ADoUrVYyUIM2ya-87">
          <mxGeometry width="50" height="50" relative="1" as="geometry">
            <mxPoint x="1840" y="835.29" as="sourcePoint" />
            <mxPoint x="1850" y="829" as="targetPoint" />
          </mxGeometry>
        </mxCell>
        <mxCell id="7QMVq0ADoUrVYyUIM2ya-96" value="" style="endArrow=classic;html=1;rounded=0;hachureGap=4;fontFamily=Garamond;fontStyle=1;entryX=0;entryY=0.5;entryDx=0;entryDy=0;entryPerimeter=0;" edge="1" parent="1" target="7QMVq0ADoUrVYyUIM2ya-79">
          <mxGeometry width="50" height="50" relative="1" as="geometry">
            <mxPoint x="1040" y="884.5" as="sourcePoint" />
            <mxPoint x="1145" y="825" as="targetPoint" />
            <Array as="points">
              <mxPoint x="1080" y="840" />
            </Array>
          </mxGeometry>
        </mxCell>
        <mxCell id="7QMVq0ADoUrVYyUIM2ya-97" value="" style="endArrow=classic;html=1;rounded=0;hachureGap=4;fontFamily=Garamond;fontStyle=1" edge="1" parent="1">
          <mxGeometry width="50" height="50" relative="1" as="geometry">
            <mxPoint x="1040" y="914.5" as="sourcePoint" />
            <mxPoint x="1130" y="990" as="targetPoint" />
            <Array as="points">
              <mxPoint x="1080" y="920" />
              <mxPoint x="1080" y="990" />
            </Array>
          </mxGeometry>
        </mxCell>
        <mxCell id="7QMVq0ADoUrVYyUIM2ya-101" value="" style="endArrow=classic;html=1;rounded=0;hachureGap=4;fontFamily=Architects Daughter;fontSource=https%3A%2F%2Ffonts.googleapis.com%2Fcss%3Ffamily%3DArchitects%2BDaughter;entryX=0;entryY=0.25;entryDx=0;entryDy=0;exitX=0;exitY=0.5;exitDx=0;exitDy=0;exitPerimeter=0;" edge="1" parent="1" source="7QMVq0ADoUrVYyUIM2ya-107" target="7QMVq0ADoUrVYyUIM2ya-20">
          <mxGeometry width="50" height="50" relative="1" as="geometry">
            <mxPoint x="1570" y="811" as="sourcePoint" />
            <mxPoint x="1150" y="710" as="targetPoint" />
          </mxGeometry>
        </mxCell>
        <mxCell id="7QMVq0ADoUrVYyUIM2ya-107" value="" style="strokeWidth=2;html=1;shape=mxgraph.flowchart.annotation_2;align=left;labelPosition=right;pointerEvents=1;hachureGap=4;fontFamily=Architects Daughter;fontSource=https%3A%2F%2Ffonts.googleapis.com%2Fcss%3Ffamily%3DArchitects%2BDaughter;rotation=-180;" vertex="1" parent="1">
          <mxGeometry x="1560.34" y="649.82" width="19.83" height="280.82" as="geometry" />
        </mxCell>
      </root>
    </mxGraphModel>
  </diagram>
</mxfile>
